PathFileType	4	(X/Y/Z)	37_2_31_p1_0-778.trc
DataRate	CameraRate	NumFrames	NumMarkers	Units	OrigDataRate	OrigDataStartFrame	OrigNumFrames
59.0	59.0	5	27	m	59.0	584	779
Frame#	Time	RHip			RKnee			RAnkle			RBigToe			RSmallToe			RHeel			LHip			LKnee			LAnkle			LBigToe			LSmallToe			LHeel			Neck			Head			Nose			RShoulder			RElbow			RWrist			RThumb			RIndex			RPinky			LShoulder			LElbow			LWrist			LThumb			LIndex			LPinky			
		X1	Y1	Z1	X2	Y2	Z2	X3	Y3	Z3	X4	Y4	Z4	X5	Y5	Z5	X6	Y6	Z6	X7	Y7	Z7	X8	Y8	Z8	X9	Y9	Z9	X10	Y10	Z10	X11	Y11	Z11	X12	Y12	Z12	X13	Y13	Z13	X14	Y14	Z14	X15	Y15	Z15	X16	Y16	Z16	X17	Y17	Z17	X18	Y18	Z18	X19	Y19	Z19	X20	Y20	Z20	X21	Y21	Z21	X22	Y22	Z22	X23	Y23	Z23	X24	Y24	Z24	X25	Y25	Z25	X26	Y26	Z26	X27	Y27	Z27	
584	9.898305084745763	0.4232454388365657	0.7435691486295993	0.7291077918781619	0.24650339333346746	0.698377553918636	1.0486906121236033	0.34629547603209326	0.9144609644136462	1.4123008348336494	0.27136082858421734	0.7866393156510237	1.433753820870615	0.3383552782832317	0.8255136970608081	1.4576147428313482	0.4027024636549814	1.0299827639201367	1.4753796077187054	0.2634774007244081	0.8749278830501653	0.7404897385963309	0.14656233773190527	0.7796270311936513	1.046251739969864	0.19398354137737803	0.887807275169361	1.3955413661991338	0.15573944683287452	0.8204991895522216	1.4215537863789418	0.12809158653432245	0.9022452608853527	1.426531826603286	0.22700351121513893	0.8338156584912905	1.4050767028857394	0.10195747436703584	0.41481628948666927	0.4474042609705966	0.0182559145838696	0.20499436525197	0.23352981808354895	0.047078986835184425	0.25529238853311603	0.3971676211938532	0.23607935087059956	0.3932532866415092	0.4349109148043624	0.4637331569508294	0.49481880392757427	0.3749125259781373	0.7147914883232552	0.6108824388579153	0.34870008360252297	0.8378240910899916	0.6773997125358021	0.37853682847195963	0.8682308598873005	0.7318910623447852	0.36376163768366754	0.8259314202140127	0.6962200696435981	0.3772054792009048	-0.01613080932111013	0.5147057603776347	0.5135411869313012	-0.023897704917835494	0.5223434726160521	0.7593705057765275	-0.03284066074928244	0.4591264010412402	1.0379919793178565	-0.025202585741523818	0.3650134489918304	1.1454577736156624	-0.07131401730410335	0.3811237052244866	1.158597164696948	-0.107694239429423	0.46175296539066596	1.1548788549689464
585	9.915254237288135	0.4271758239836305	0.7445700540090006	0.7259659880596697	0.2465469196413612	0.6984339213232653	1.0486130208023243	0.346297172259694	0.9148694124382197	1.4123399837498258	0.2741820855854558	0.7705841556071804	1.43049478562345	0.3363482437998993	0.8223381995467995	1.450028925632108	0.3971860412409653	1.0136882110863872	1.465956651513169	0.26347578129014665	0.8747512550666976	0.7403731727383718	0.1490098517881155	0.7723446122976013	1.0465526151126	0.19346426396412805	0.8886397718415191	1.3978989780436966	0.15501909714993242	0.822441354582183	1.4234063848167255	0.12561614256349837	0.9039371049484973	1.4266068018794587	0.22689172060228271	0.8345668576613335	1.4049445994109186	0.0988416010140307	0.4261200876166251	0.44391988347769684	0.014725663869501606	0.1959470539061955	0.23411378407387967	0.04665247584153116	0.2534961351540669	0.3906876625698075	0.2314175206061162	0.38308710448957517	0.43491537198945956	0.4642479377573753	0.4938307888690265	0.3713338428200768	0.7084935269012312	0.6425517522146641	0.3513803866281056	0.8272279503464457	0.6865800336632522	0.41388294503117834	0.838691290334074	0.7057146897070249	0.380907763710201	0.7962552120310167	0.6642761526228809	0.38034362434500585	-0.016251317881369062	0.5148971755035344	0.5101715599812489	-0.023437692968348772	0.5220198504618982	0.7525075094630529	-0.03203892755221745	0.45830551274659453	1.0345686923590076	-0.02779081416244467	0.3564334524823883	1.1469359330077482	-0.07939537012526983	0.3786768632364629	1.1575592045755432	-0.10436009124492905	0.46263296314072044	1.150788643786904
586	9.932203389830509	0.42304666926566814	0.7437744910898354	0.7257522968354977	0.24734425163024137	0.7021158314745781	1.0497407603692268	0.34702072217845636	0.9136668184743029	1.408737888537882	0.2704812809681307	0.783667132465043	1.4325134629510723	0.3356117731896702	0.8196138737038047	1.448288928578567	0.3974960389802946	1.0119025079497597	1.46262495226931	0.26338717531428874	0.874852762080195	0.7403841224909257	0.14945544200339922	0.7727078811885147	1.0393145190728392	0.19398979412864345	0.8876577626886004	1.3953696339415642	0.15495061156281392	0.8224741176592021	1.4232413072286685	0.13009929641003234	0.9049344548600421	1.4262749427667476	0.22687154160098952	0.8343571413937417	1.4048984973526468	0.10184763856559356	0.41423328924824826	0.4440866144195619	0.01866858895968684	0.2044254416696381	0.2302219166300088	0.047181770235800495	0.2530048933734596	0.3869992582840973	0.23141319235456706	0.38305013482314326	0.43489616783688506	0.465053801457533	0.47766074721322405	0.36405676391131586	0.6909718237731908	0.6349721652589885	0.35542664574047045	0.8026940010765058	0.6750928948407223	0.4217640051704619	0.8103175996963865	0.6882045831862135	0.41679900132944636	0.7868039489420261	0.6845195454090681	0.3755885800794746	-0.01619912967308862	0.5149236542891602	0.5101229000691906	-0.023431860540714215	0.5221375415033765	0.7524413621592492	-0.03209124895156168	0.45847498270050324	1.0346107613298943	-0.027600490575191716	0.35572509308745937	1.146366206161765	-0.08234091257112704	0.3676088229298387	1.1541471793565883	-0.11115020888381143	0.44994046616270633	1.1473191135102458
587	9.94915254237288	0.4229517130950505	0.7434461202279243	0.7252670013978155	0.24736065580805805	0.7018619716974331	1.0496280994781464	0.347119463568786	0.9138754035667084	1.4085492963439232	0.27331407816400527	0.7642287254005986	1.4199866870625064	0.3377003372579899	0.8173278368727632	1.4427971888222593	0.4033392240428665	1.0298325800489114	1.467715904916424	0.26337206388171946	0.8746140147007039	0.7403334746439413	0.148924451014362	0.7728483092073898	1.0465019133252782	0.18959736792193393	0.8632391655132975	1.3836936620293652	0.15386826395173753	0.8182425409360716	1.4175779094594063	0.12926177141320344	0.8968135043248757	1.419505861649001	0.22690963060032834	0.8248048827354267	1.3970927507945443	0.1019073770056545	0.41390722139590924	0.44395334776665857	0.022408278198590023	0.20599628598849185	0.23010211536735722	0.04665270498815462	0.25099385915309436	0.3837117876862483	0.23134564459816193	0.38263994601686857	0.43470589313581265	0.47346668650395024	0.43262977705431693	0.3518050706700931	0.6654408077190196	0.6373399839170713	0.3619117994593312	0.7749004602091538	0.7321103647854338	0.43663156484501203	0.7939180522684929	0.7686842640531779	0.42858401187333817	0.7792382980243815	0.7620881247486676	0.3818082676826842	-0.012736119944152854	0.5031924749993909	0.5098561220505705	-0.023412773337287536	0.5221864626025179	0.7524873325763037	-0.03212752898197133	0.45815374113164137	1.0343785993005994	-0.025238546683299425	0.3648276813315554	1.1450261105347777	-0.07989900842491215	0.3769267181429975	1.1536642101710848	-0.10804631628405578	0.46228087882219476	1.1507472811804675
588	9.966101694915254	0.4229052156584264	0.7431336820544354	0.7247973361700577	0.24760159542963117	0.7013325040142963	1.0536168651835935	0.3447316500481379	0.9234674434209638	1.405475459041481	0.27150357469019093	0.7711367482907447	1.4161226245457985	0.32956800437658806	0.8410720785288207	1.447898338936301	0.40362274358968675	1.0164715701359375	1.4570261818679138	0.25873404548376117	0.873622944532731	0.7401351952585467	0.1483956973724179	0.771251526206113	1.0585216906260118	0.19029074547068558	0.8534285203630715	1.3882809085609449	0.14989596094625363	0.7980198245959275	1.4118444927104272	0.1567407941044538	0.7432927855365705	1.3773638491939262	0.21673756645740683	0.8462241276147245	1.3988775695631892	0.10218814046409753	0.4138632597098474	0.4438324187816253	0.022455310110757437	0.20633121280545724	0.23009787589126113	0.04634751810221773	0.25160804921653873	0.38715864804121874	0.23534468941473638	0.38395465360328274	0.4348694506038388	0.4774229405881727	0.44170731164865257	0.3467292846910116	0.642067412034302	0.6134705496379541	0.3689148993922194	0.7303209348037717	0.7030723169143788	0.4418380320759622	0.7770064174152113	0.812990030736429	0.4342544757911012	0.7683261867804688	0.7941755491185147	0.41898026212788486	-0.012767390017796818	0.5031134232390466	0.509671645399345	-0.023447743709100365	0.5220094467848548	0.7523350268332553	-0.03208164373652799	0.4584607291734059	1.0344327962698066	-0.021386207794393788	0.3529806713779407	1.139665437190979	-0.07943669890835407	0.37970005394882267	1.158287962480484	-0.11066057648670133	0.46332239844536693	1.1443991356408318
